<svg width="17" height="16" viewBox="0 0 17 16" fill="none" xmlns="http://www.w3.org/2000/svg">
<path d="M15.1008 1.05132L1.56519 0.776621C1.23884 0.769998 0.923203 0.894253 0.687718 1.12205C0.452234 1.34985 0.316192 1.66253 0.30952 1.99131L0.0579345 14.388C0.051718 14.6243 0.113394 14.8574 0.235549 15.0593C0.357704 15.2612 0.535139 15.4232 0.746526 15.5258C0.907582 15.6054 1.08393 15.6487 1.26329 15.6526C1.55216 15.6577 1.83353 15.5596 2.05753 15.3757L2.06456 15.3704L4.62061 13.2404L14.8493 13.448C15.1756 13.4546 15.4913 13.3303 15.7267 13.1025C15.9622 12.8747 16.0983 12.5621 16.1049 12.2333L16.3062 2.31596C16.3129 1.98718 16.1896 1.66924 15.9636 1.43207C15.7375 1.1949 15.4272 1.05795 15.1008 1.05132ZM14.8744 12.2083L4.41505 11.996C4.26732 11.9931 4.12346 12.0438 4.00976 12.139L1.28845 14.4129L1.54003 2.01629L15.0757 2.29099L14.8744 12.2083Z" fill="white"/>
</svg>
