<svg width="23" height="29" viewBox="0 0 23 29" fill="none" xmlns="http://www.w3.org/2000/svg">
<path d="M13.6152 1.59698C13.7851 1.70209 13.955 1.80713 14.1249 1.91209C14.2074 1.96334 14.2898 2.01458 14.3748 2.06738C14.701 2.26882 15.0304 2.46464 15.3614 2.65821C15.4133 2.68887 15.4652 2.71954 15.5187 2.75113C16.1052 3.09402 16.6947 3.16885 17.3651 3.07786C17.7575 2.9531 18.1044 2.77503 18.4641 2.5774C18.6795 2.45904 18.8962 2.34311 19.1132 2.22764C20.1904 1.66699 20.1904 1.66699 21.237 1.05432C21.5228 1.0298 21.5228 1.0298 21.8074 1.0659C22.0453 1.31085 22.0742 1.49603 22.0693 1.82927C22.0682 1.95962 22.0682 1.95962 22.0671 2.0926C22.0639 2.23289 22.0639 2.23289 22.0606 2.37602C22.0591 2.4727 22.0576 2.56937 22.056 2.66898C22.0524 2.87361 22.0481 3.07822 22.0432 3.28283C22.0362 3.59483 22.0322 3.90677 22.0285 4.21882C22.0246 4.41782 22.0205 4.61681 22.0162 4.81579C22.0152 4.90869 22.0143 5.00158 22.0133 5.09729C21.9972 5.6517 21.9269 6.01393 21.616 6.479C21.4207 6.6399 21.4207 6.6399 21.1874 6.76339C21.0472 6.83934 21.0472 6.83934 20.9041 6.91682C20.784 6.97924 20.6638 7.04165 20.5437 7.10405C20.3771 7.19234 20.2106 7.28077 20.0442 7.36931C19.7746 7.51254 19.5049 7.65543 19.2345 7.79712C18.7649 8.04323 18.3009 8.295 17.8441 8.56391C17.2671 8.8718 16.6633 8.93298 16.0265 8.79109C15.4795 8.58701 14.9877 8.25836 14.4949 7.9515C14.2416 7.79601 13.9881 7.64093 13.7343 7.48621C13.5675 7.38408 13.4014 7.28103 13.2358 7.17693C12.5197 6.73262 11.8031 6.36325 10.9379 6.50485C10.2725 6.7377 9.66401 7.10115 9.04658 7.43573C8.97038 7.47699 8.97038 7.47699 8.89264 7.51909C8.63619 7.65817 8.38024 7.79803 8.12515 7.93955C7.28853 8.40138 6.57806 8.75646 5.59781 8.57944C5.1381 8.4043 4.72866 8.15729 4.30734 7.90645C4.17071 7.82678 4.03408 7.74711 3.89737 7.66757C1.20358 6.098 1.20358 6.098 1.01446 5.49495C1.00907 5.3461 1.0084 5.19707 1.01039 5.04814C1.01147 4.95669 1.01254 4.86525 1.01364 4.77104C1.0153 4.67228 1.01696 4.57352 1.01867 4.47177C1.02026 4.37043 1.02185 4.26909 1.02349 4.16468C1.02707 3.95026 1.03086 3.73585 1.03493 3.52143C1.04006 3.24666 1.04367 2.97189 1.04693 2.69709C1.05037 2.43493 1.05553 2.1728 1.06046 1.91066C1.06145 1.81189 1.06245 1.71312 1.06348 1.61136C1.06558 1.51993 1.06768 1.42851 1.06984 1.33432C1.07185 1.21346 1.07185 1.21346 1.0739 1.09016C1.10795 0.888363 1.10795 0.888363 1.22063 0.743337C1.43636 0.597373 1.59186 0.62603 1.84614 0.660793C2.08215 0.765363 2.08215 0.765363 2.32726 0.910266C2.41774 0.963151 2.50822 1.01604 2.60144 1.07052C2.69725 1.12794 2.79305 1.18538 2.88883 1.24285C2.98691 1.30069 3.08504 1.35844 3.18321 1.41612C3.79619 1.77752 4.40346 2.14778 5.0016 2.53292C5.58481 2.88459 6.18333 2.96477 6.8549 2.86456C7.25035 2.73453 7.60299 2.5552 7.96705 2.356C8.20743 2.22495 8.44991 2.09818 8.69263 1.97144C9.32083 1.64246 9.94736 1.31047 10.5689 0.969199C11.6261 0.410555 12.7158 1.02903 13.6152 1.59698Z" fill="#FDFDFD"/>
<path d="M1.64606 10.5205C1.88811 10.6326 1.88811 10.6326 2.14178 10.7879C2.21065 10.8295 2.21065 10.8295 2.28092 10.8719C2.42907 10.9616 2.5763 11.0526 2.72358 11.1437C2.82527 11.2055 2.92703 11.2671 3.02886 11.3287C3.22912 11.4498 3.42907 11.5715 3.62874 11.6936C3.96962 11.9017 4.31207 12.1069 4.6561 12.3097C4.70472 12.339 4.75334 12.3683 4.80343 12.3985C5.35861 12.7266 5.84895 12.8664 6.49024 12.8018C7.19295 12.5888 7.83045 12.2424 8.4651 11.8817C8.62999 11.7893 8.79488 11.6968 8.95977 11.6044C9.04044 11.5589 9.12111 11.5135 9.20423 11.4667C9.46775 11.3183 9.73138 11.1701 9.99552 11.0228C10.0755 10.978 10.1556 10.9333 10.238 10.8871C10.5904 10.7033 10.8715 10.69 11.2656 10.6904C11.3675 10.6895 11.4693 10.6885 11.5742 10.6875C12.3385 10.7427 13.0106 11.2254 13.6411 11.6179C13.8109 11.7227 13.9807 11.8274 14.1505 11.9321C14.2345 11.9839 14.3185 12.0358 14.4051 12.0892C14.6363 12.2299 14.8694 12.3664 15.1043 12.5009C15.2083 12.5611 15.2083 12.5611 15.3144 12.6225C15.4429 12.6966 15.572 12.7698 15.7017 12.8419C15.7596 12.8755 15.8174 12.9092 15.877 12.9439C15.9516 12.9861 15.9516 12.9861 16.0277 13.0291C16.3487 13.301 16.5509 13.5449 16.6111 13.9613C16.6206 14.2375 16.6169 14.5105 16.6082 14.7868C16.6063 14.8874 16.6045 14.9881 16.6026 15.0919C16.5971 15.3582 16.5897 15.6243 16.5815 15.8905C16.5771 16.0538 16.5741 16.217 16.5716 16.3802C16.5667 16.6943 16.5596 17.0083 16.5516 17.3223C16.5501 17.4196 16.5485 17.517 16.5469 17.6172C16.5438 17.7076 16.5406 17.7979 16.5374 17.891C16.5342 18.0101 16.5342 18.0101 16.531 18.1316C16.4718 18.3997 16.3714 18.4948 16.1523 18.6574C15.7786 18.7025 15.5622 18.6206 15.2497 18.4227C15.1336 18.3505 15.1336 18.3505 15.0151 18.2769C14.9334 18.2247 14.8517 18.1726 14.7675 18.1189C14.5948 18.0116 14.4221 17.9044 14.2493 17.7973C14.1627 17.7434 14.0762 17.6896 13.987 17.634C13.6071 17.3999 13.2221 17.175 12.8349 16.9528C12.7697 16.9149 12.7045 16.877 12.6373 16.8379C12.0326 16.4916 11.5234 16.3074 10.8193 16.3662C10.1734 16.5407 9.59658 16.8768 9.01934 17.2039C8.85295 17.297 8.68655 17.3902 8.52016 17.4833C8.2644 17.6269 8.00893 17.7708 7.75417 17.9161C7.6681 17.9646 7.58204 18.0132 7.49337 18.0632C7.41629 18.107 7.33921 18.1509 7.2598 18.1961C6.82619 18.4126 6.44099 18.4885 5.95705 18.4909C5.85929 18.4931 5.76153 18.4953 5.66081 18.4975C4.85486 18.4184 4.06382 17.7709 3.39217 17.3575C3.22333 17.2541 3.05445 17.1508 2.88554 17.0475C2.80507 16.9983 2.7246 16.949 2.64169 16.8983C2.44709 16.7804 2.25153 16.6649 2.05442 16.5512C2.00295 16.5214 1.95148 16.4916 1.89845 16.461C1.76797 16.386 1.63708 16.3117 1.50615 16.2375C1.18073 16.0199 0.930915 15.8123 0.812738 15.4355C0.807389 15.2841 0.806778 15.1326 0.808823 14.9812C0.809929 14.8882 0.811034 14.7951 0.812173 14.6992C0.813867 14.5987 0.815561 14.4982 0.817306 14.3946C0.818934 14.2915 0.820563 14.1883 0.822241 14.0821C0.825899 13.8638 0.829765 13.6456 0.83391 13.4274C0.839138 13.1477 0.842853 12.8681 0.846212 12.5884C0.849745 12.3216 0.854997 12.0548 0.860017 11.788C0.861051 11.6875 0.862085 11.587 0.86315 11.4834C0.865283 11.3903 0.867416 11.2973 0.869613 11.2014C0.871664 11.0784 0.871664 11.0784 0.873756 10.9529C0.907867 10.7481 0.907867 10.7481 1.02062 10.6026C1.23714 10.4567 1.39108 10.4846 1.64606 10.5205Z" fill="#FDFDFD"/>
<path d="M1.43573 20.4022C1.82641 20.5438 2.16952 20.7823 2.51836 21.0033C2.69061 21.11 2.86292 21.2165 3.0353 21.323C3.12034 21.3758 3.20537 21.4287 3.29298 21.4831C3.64259 21.699 3.99518 21.9095 4.35007 22.1168C4.40693 22.1507 4.4638 22.1847 4.5224 22.2196C5.08216 22.5455 5.63798 22.7347 6.29011 22.6615C7.02078 22.4368 7.68401 22.074 8.34726 21.7027C8.48147 21.6285 8.48147 21.6285 8.61839 21.5528C8.97833 21.3537 9.33806 21.1546 9.69434 20.9491C9.78184 20.8992 9.86934 20.8492 9.95949 20.7978C10.0377 20.7524 10.116 20.7071 10.1966 20.6604C10.4082 20.562 10.5158 20.5324 10.7443 20.5639C10.9768 20.6545 10.9768 20.6545 11.1365 20.8194C11.1538 21.014 11.1538 21.014 11.1499 21.2608C11.1488 21.3531 11.1477 21.4454 11.1466 21.5405C11.1434 21.6907 11.1434 21.6907 11.1402 21.844C11.1384 21.9467 11.1367 22.0494 11.1349 22.1552C11.131 22.3729 11.1267 22.5905 11.1218 22.8082C11.1157 23.0863 11.1114 23.3644 11.1077 23.6425C11.1038 23.9085 11.0981 24.1744 11.0926 24.4404C11.0913 24.5399 11.09 24.6395 11.0887 24.742C11.0664 25.6111 11.0664 25.6111 10.7871 25.9868C10.6001 26.1321 10.6001 26.1321 10.3638 26.2612C10.3193 26.2859 10.2748 26.3106 10.2289 26.3361C10.0585 26.4298 9.88673 26.5209 9.71478 26.6118C9.63606 26.6537 9.55734 26.6956 9.47623 26.7388C9.1198 26.9283 8.76322 27.1175 8.40562 27.3049C7.934 27.5521 7.46742 27.8049 7.00721 28.0725C6.46589 28.3718 5.97582 28.4701 5.35891 28.383C4.73718 28.1836 4.18949 27.8419 3.63971 27.4992C3.4703 27.3944 3.30081 27.2898 3.13124 27.1853C3.00374 27.1068 3.00374 27.1068 2.87366 27.0266C2.62722 26.8775 2.37843 26.7338 2.12762 26.5921C2.05074 26.5482 1.97386 26.5043 1.89465 26.4591C1.74974 26.3768 1.6042 26.2956 1.45794 26.2156C1.39254 26.1781 1.32714 26.1406 1.25976 26.102C1.1744 26.0545 1.1744 26.0545 1.08731 26.0061C0.774149 25.7353 0.631732 25.4689 0.587227 25.0646C0.579861 24.7831 0.583492 24.5037 0.591085 24.2222C0.592856 24.1195 0.594628 24.0169 0.596454 23.9111C0.600623 23.6948 0.605443 23.4786 0.611362 23.2623C0.61885 22.9852 0.62339 22.7082 0.627068 22.431C0.630986 22.166 0.637385 21.901 0.64357 21.6361C0.645609 21.4868 0.645609 21.4868 0.64769 21.3345C0.650584 21.2425 0.653479 21.1505 0.656461 21.0558C0.658365 20.9747 0.660268 20.8937 0.66223 20.8102C0.707739 20.6078 0.707739 20.6078 0.860849 20.462C1.06905 20.3565 1.20818 20.3527 1.43573 20.4022Z" fill="#FDFDFD"/>
</svg>
