<svg width="18" height="23" viewBox="0 0 18 23" fill="none" xmlns="http://www.w3.org/2000/svg">
<path d="M10.3207 0.665373C10.462 0.749543 10.6032 0.833653 10.7446 0.917702C10.8131 0.958743 10.8817 0.999784 10.9523 1.04207C11.2236 1.20337 11.4974 1.35997 11.7724 1.51466C11.8156 1.53918 11.8588 1.5637 11.9032 1.58896C12.3906 1.86299 12.876 1.91504 13.425 1.82844C13.7452 1.71855 14.0271 1.5653 14.3192 1.39562C14.4942 1.29402 14.6702 1.19439 14.8465 1.09514C15.7218 0.612858 15.7218 0.612858 16.5711 0.0880224C16.8054 0.0629202 16.8054 0.0629202 17.0397 0.0880224C17.2392 0.286829 17.266 0.439662 17.2676 0.715643C17.2689 0.823584 17.2689 0.823584 17.2702 0.933706C17.2699 1.04991 17.2699 1.04991 17.2696 1.16846C17.2699 1.24853 17.2703 1.3286 17.2706 1.4111C17.2711 1.58058 17.271 1.75006 17.2704 1.91953C17.2698 2.17797 17.2717 2.4363 17.2739 2.69473C17.274 2.85955 17.2739 3.02437 17.2737 3.18919C17.2745 3.26612 17.2753 3.34304 17.276 3.4223C17.2721 3.88159 17.2204 4.18267 16.9728 4.57295C16.8151 4.70944 16.8151 4.70944 16.6255 4.8156C16.5116 4.88084 16.5116 4.88084 16.3954 4.94739C16.2978 5.00109 16.2002 5.05478 16.1026 5.10846C15.9672 5.18436 15.832 5.26037 15.6968 5.33647C15.4778 5.45959 15.2586 5.58243 15.0389 5.70428C14.6574 5.91593 14.2805 6.13218 13.9098 6.36249C13.4411 6.6271 12.9463 6.6879 12.4209 6.58112C11.9682 6.42135 11.5589 6.15751 11.1491 5.91173C10.9385 5.78725 10.7277 5.66312 10.5167 5.53928C10.378 5.45753 10.2398 5.375 10.1021 5.2916C9.50659 4.93577 8.9119 4.642 8.20375 4.77377C7.66114 4.97773 7.16747 5.28887 6.66598 5.57625C6.60409 5.6117 6.60409 5.6117 6.54095 5.64786C6.33265 5.76732 6.12478 5.88741 5.91764 6.00887C5.23826 6.4053 4.66069 6.71122 3.85271 6.58112C3.47225 6.44384 3.13187 6.24622 2.78168 6.04561C2.66814 5.98194 2.5546 5.91828 2.441 5.85472C0.202543 4.60048 0.202543 4.60048 0.0371729 4.10437C0.0302674 3.98123 0.0272316 3.85785 0.0263868 3.73451C0.0257437 3.65878 0.0251006 3.58305 0.0244379 3.50503C0.0241535 3.42324 0.023869 3.34145 0.0235759 3.25717C0.0231943 3.17324 0.0228128 3.08932 0.0224196 3.00284C0.021787 2.82525 0.0213253 2.64767 0.0210918 2.47008C0.0207241 2.2425 0.0191142 2.01495 0.0172115 1.78738C0.0156657 1.57027 0.0155328 1.35316 0.0152085 1.13604C0.014382 1.05425 0.0135555 0.972452 0.012704 0.888179C0.0129049 0.812453 0.0131058 0.736726 0.0133127 0.658705C0.0129467 0.558609 0.0129467 0.558609 0.0125732 0.45649C0.0371729 0.28884 0.0371729 0.28884 0.127297 0.166874C0.302035 0.0424003 0.430216 0.0635134 0.639625 0.0880224C0.835197 0.170634 0.835197 0.170634 1.03891 0.286487C1.1141 0.328752 1.18929 0.371017 1.26676 0.414563C1.3464 0.46049 1.42603 0.50644 1.50565 0.552413C1.58716 0.598645 1.66871 0.644813 1.7503 0.690916C2.25973 0.979834 2.76464 1.27618 3.26228 1.585C3.74711 1.86637 4.23999 1.9227 4.78985 1.82844C5.11245 1.71414 5.39907 1.55975 5.69474 1.3887C5.88997 1.27616 6.087 1.16713 6.28422 1.05812C6.79465 0.775187 7.30366 0.489788 7.80839 0.196799C8.66737 -0.283488 9.57262 0.210261 10.3207 0.665373Z" fill="black"/>
<path d="M0.639626 8.25461C0.84028 8.34336 0.84028 8.34336 1.0512 8.46771C1.10845 8.50096 1.10845 8.50096 1.16687 8.53489C1.29003 8.60664 1.41246 8.67955 1.53494 8.75247C1.61948 8.8019 1.70408 8.85125 1.78874 8.9005C1.95522 8.99747 2.12146 9.09481 2.28748 9.19257C2.57089 9.35911 2.85556 9.52325 3.14148 9.68543C3.18189 9.70885 3.22231 9.73227 3.26395 9.75641C3.72536 10.0188 4.13039 10.1262 4.65598 10.062C5.22954 9.87384 5.74732 9.57632 6.26252 9.26706C6.39639 9.18775 6.53027 9.10843 6.66415 9.02911C6.72964 8.99013 6.79514 8.95115 6.86262 8.91099C7.07656 8.78371 7.2906 8.65661 7.50508 8.53021C7.57005 8.4918 7.63503 8.45339 7.70197 8.41382C7.98831 8.25569 8.2189 8.23995 8.54263 8.23369C8.62625 8.23119 8.70986 8.22868 8.79601 8.2261C9.42462 8.25895 9.98463 8.64727 10.509 8.96165C10.6501 9.04556 10.7913 9.1294 10.9326 9.2132C11.0024 9.25472 11.0723 9.29625 11.1442 9.33903C11.3365 9.45166 11.5302 9.56069 11.7254 9.66817C11.8118 9.71625 11.8118 9.71625 11.8999 9.7653C12.0067 9.82449 12.1139 9.88291 12.2217 9.94039C12.2697 9.96731 12.3178 9.99422 12.3673 10.022C12.4293 10.0556 12.4293 10.0556 12.4925 10.0899C12.7606 10.3097 12.9308 10.5082 12.9872 10.8519C12.9996 11.0804 13.0011 11.3066 12.9985 11.5354C12.9987 11.6188 12.9989 11.7022 12.999 11.7881C12.9989 12.0087 12.9973 12.2292 12.995 12.4497C12.9941 12.5849 12.9943 12.7201 12.995 12.8553C12.9963 13.1154 12.9956 13.3755 12.9943 13.6356C12.9947 13.7162 12.995 13.7968 12.9954 13.8799C12.9943 13.9548 12.9932 14.0296 12.9921 14.1067C12.9915 14.2054 12.9915 14.2054 12.9909 14.3061C12.9467 14.529 12.8659 14.6094 12.6887 14.7477C12.3825 14.7913 12.2034 14.7272 11.9435 14.5686C11.8469 14.5108 11.8469 14.5108 11.7484 14.4518C11.6804 14.41 11.6124 14.3682 11.5423 14.3252C11.3988 14.2392 11.2551 14.1533 11.1114 14.0676C11.0395 14.0244 10.9675 13.9813 10.8933 13.9368C10.5774 13.7494 10.2575 13.5696 9.9358 13.3922C9.8816 13.3619 9.8274 13.3316 9.77156 13.3003C9.26916 13.0238 8.84795 12.8799 8.27069 12.9403C7.7431 13.0957 7.27501 13.3836 6.8064 13.6641C6.6713 13.7441 6.5362 13.824 6.4011 13.9039C6.19345 14.027 5.98604 14.1505 5.77923 14.275C5.70936 14.3167 5.63949 14.3583 5.5675 14.4012C5.50493 14.4388 5.44236 14.4764 5.37789 14.5152C5.0254 14.7017 4.71031 14.7711 4.31291 14.7812C4.23266 14.7846 4.15242 14.7881 4.06974 14.7916C3.40653 14.7397 2.74608 14.2168 2.18759 13.8859C2.04721 13.8031 1.90679 13.7204 1.76635 13.6377C1.69944 13.5983 1.63254 13.5589 1.5636 13.5183C1.40182 13.424 1.23929 13.3316 1.07551 13.2408C1.03275 13.217 0.989981 13.1932 0.945918 13.1687C0.837512 13.1088 0.728778 13.0495 0.620014 12.9903C0.34913 12.8156 0.140507 12.6479 0.0371729 12.3379C0.0302572 12.2127 0.0272306 12.0873 0.0263868 11.9619C0.0257437 11.8848 0.0251006 11.8078 0.024438 11.7284C0.0241535 11.6451 0.023869 11.5618 0.0235759 11.4761C0.0231943 11.3906 0.0228128 11.3052 0.0224196 11.2172C0.0217869 11.0365 0.0213253 10.8557 0.0210918 10.675C0.0207241 10.4434 0.019114 10.2118 0.0172112 9.98015C0.0156656 9.75919 0.0155329 9.53823 0.0152085 9.31727C0.014382 9.23401 0.0135555 9.15075 0.012704 9.06497C0.0129049 8.9879 0.0131058 8.91084 0.0133127 8.83143C0.0129467 8.72955 0.0129467 8.72955 0.0125732 8.62562C0.0371729 8.45542 0.0371729 8.45542 0.127345 8.33313C0.302737 8.20866 0.429628 8.22922 0.639626 8.25461Z" fill="black"/>
<path d="M0.631649 16.4395C0.954854 16.5502 1.24061 16.7419 1.53078 16.919C1.67402 17.0044 1.81732 17.0898 1.96066 17.175C2.03137 17.2173 2.10209 17.2596 2.17494 17.3032C2.46567 17.4762 2.75874 17.6445 3.05365 17.8102C3.10092 17.8373 3.14819 17.8644 3.19689 17.8924C3.66204 18.1528 4.12167 18.3001 4.65601 18.2285C5.25233 18.0302 5.79097 17.7187 6.32949 17.4002C6.43847 17.3365 6.43847 17.3365 6.54965 17.2715C6.84194 17.1006 7.13405 16.9297 7.42323 16.7536C7.49426 16.7108 7.56528 16.6679 7.63846 16.6238C7.70196 16.585 7.76546 16.5461 7.83088 16.5061C8.00307 16.4211 8.09093 16.3948 8.27909 16.417C8.47154 16.4881 8.47154 16.4881 8.60542 16.622C8.62287 16.7828 8.62287 16.7828 8.6238 16.9872C8.62444 17.0636 8.62508 17.1401 8.62574 17.2188C8.62565 17.3433 8.62565 17.3433 8.62555 17.4702C8.62584 17.5553 8.62613 17.6403 8.62642 17.7279C8.62681 17.9082 8.6269 18.0885 8.62655 18.2688C8.62616 18.4991 8.62729 18.7294 8.62885 18.9598C8.63008 19.1801 8.62982 19.4004 8.62974 19.6206C8.63035 19.7031 8.63097 19.7855 8.6316 19.8704C8.62772 20.5904 8.62772 20.5904 8.4046 20.9061C8.25346 21.0295 8.25346 21.0295 8.06154 21.1404C8.0254 21.1616 7.98926 21.1828 7.95203 21.2047C7.81361 21.2851 7.6741 21.3634 7.53439 21.4416C7.47044 21.4776 7.40649 21.5136 7.3406 21.5507C7.05104 21.7136 6.76135 21.8763 6.47078 22.0374C6.08758 22.25 5.70862 22.4672 5.33512 22.6965C4.89555 22.9534 4.49471 23.043 3.98662 22.9812C3.47269 22.8266 3.0172 22.5529 2.55997 22.2783C2.41909 22.1945 2.27816 22.1107 2.13716 22.0271C2.03114 21.9641 2.03114 21.9641 1.92297 21.8999C1.7181 21.7806 1.51138 21.6659 1.30303 21.5527C1.23916 21.5177 1.17529 21.4827 1.10949 21.4466C0.989109 21.3808 0.868226 21.316 0.746782 21.2523C0.692447 21.2223 0.638112 21.1924 0.582131 21.1616C0.511234 21.1237 0.511234 21.1237 0.438904 21.0851C0.177205 20.8661 0.0558025 20.6479 0.0125143 20.314C0.00177318 20.081 9.88091e-05 19.8496 0.00164243 19.6165C0.00138626 19.5314 0.00113009 19.4464 0.000866156 19.3588C0.000684384 19.1796 0.00103947 19.0005 0.00229613 18.8214C0.00382786 18.5918 0.00293837 18.3624 0.00133958 18.1328C0.000140246 17.9134 0.000979258 17.6939 0.00164243 17.4744C0.000829426 17.3508 0.000829427 17.3508 0 17.2247C0.000844013 17.1485 0.00168802 17.0723 0.00255761 16.9937C0.00277064 16.9266 0.00298366 16.8595 0.00320314 16.7904C0.0372039 16.622 0.0372039 16.622 0.160517 16.4987C0.329746 16.4079 0.44394 16.4023 0.631649 16.4395Z" fill="black"/>
</svg>
