<svg width="13" height="18" viewBox="0 0 13 18" fill="none" xmlns="http://www.w3.org/2000/svg">
<path d="M11.822 5.28308C11.8498 3.9135 11.315 2.66247 10.4294 1.7476C9.54282 0.831723 8.30435 0.250991 6.92363 0.222969C5.54291 0.194948 4.2819 0.724955 3.35887 1.60411C2.43686 2.48229 1.85182 3.71059 1.82403 5.08017C1.79623 6.44975 2.33096 7.70078 3.21658 8.61565C4.10317 9.53153 5.34165 10.1123 6.72236 10.1403C8.10308 10.1683 9.36409 9.6383 10.2871 8.75914C10.7614 8.3088 11.1412 7.76984 11.4046 7.17327C11.668 6.57671 11.8098 5.93432 11.822 5.28308ZM0.622964 14.9772C0.602837 15.9689 2.83225 17.0063 6.58147 17.0824C10.0988 17.1538 12.6004 16.2124 12.6205 15.2207C12.6607 13.2372 10.3475 11.206 6.70224 11.132C2.95301 11.0559 0.663217 12.9937 0.622964 14.9772Z" fill="#CCCCCC"/>
</svg>
