<svg width="24" height="6" viewBox="0 0 24 6" fill="none" xmlns="http://www.w3.org/2000/svg">
<path d="M19.0633 3.23524C19.0766 2.57768 19.3317 1.95197 19.7724 1.49576C20.213 1.03955 20.8032 0.790203 21.4131 0.80258C22.023 0.814957 22.6026 1.08804 23.0244 1.56176C23.4462 2.03547 23.6757 2.67102 23.6623 3.32858C23.649 3.98614 23.3939 4.61185 22.9532 5.06806C22.5125 5.52427 21.9224 5.77361 21.3125 5.76124C20.7026 5.74886 20.123 5.47578 19.7012 5.00206C19.2794 4.52834 19.0499 3.8928 19.0633 3.23524ZM9.86517 3.04857C9.87851 2.39101 10.1336 1.7653 10.5743 1.30909C11.0149 0.852875 11.6051 0.603531 12.215 0.615908C12.8249 0.628285 13.4045 0.90137 13.8263 1.37509C14.2481 1.8488 14.4776 2.48435 14.4642 3.1419C14.4509 3.79946 14.1958 4.42517 13.7551 4.88139C13.3144 5.3376 12.7242 5.58694 12.1144 5.57456C11.5045 5.56219 10.9249 5.2891 10.5031 4.81539C10.0813 4.34167 9.85182 3.70613 9.86517 3.04857ZM0.66706 2.8619C0.680405 2.20434 0.935474 1.57863 1.37615 1.12242C1.81684 0.666203 2.40703 0.416859 3.0169 0.429236C3.62678 0.441613 4.20637 0.714698 4.62818 1.18841C5.04999 1.66213 5.27946 2.29767 5.26611 2.95523C5.25277 3.61279 4.9977 4.2385 4.55702 4.69471C4.11634 5.15093 3.52614 5.40027 2.91627 5.38789C2.3064 5.37552 1.7268 5.10243 1.305 4.62871C0.883187 4.155 0.653715 3.51946 0.66706 2.8619Z" fill="white"/>
</svg>
